<svg width="328" height="91" viewBox="0 0 328 91" fill="none" xmlns="http://www.w3.org/2000/svg">
<g clip-path="url(#clip0_25_114)">
<path d="M38.568 5.66605L25.7392 25.1077L47.7628 39.7024C50.1271 41.266 50.7732 44.4556 49.2121 46.8246L20.0588 91.0002L11.4969 85.3338L24.3296 65.8921L2.30211 51.2977C-0.0622503 49.7339 -0.711977 46.5445 0.852792 44.1752L30.0025 0L38.568 5.66605ZM20.0763 33.6867L12.2462 45.5561L29.9886 57.3138L37.8224 45.4441L20.0763 33.6867V33.6867Z" fill="#F551B1"/>
<path d="M38.568 5.66605L25.7392 25.1077L47.7628 39.7024C50.1271 41.266 50.7732 44.4556 49.2121 46.8246L20.0588 91.0002L11.4969 85.3338L24.3296 65.8921L2.30211 51.2977C-0.0622503 49.7339 -0.711977 46.5445 0.852792 44.1752L30.0025 0L38.568 5.66605ZM20.0763 33.6867L12.2462 45.5561L29.9886 57.3138L37.8224 45.4441L20.0763 33.6867V33.6867Z" fill="#121528"/>
<path d="M65.7531 59.5039C68.7827 64.8053 74.2531 68.2005 80.9164 68.2005C88.7651 68.2005 94.6526 63.6104 94.6526 56.405C94.6526 51.1059 91.5621 47.8244 84.9623 44.9025L80.4999 42.9409C77.1693 41.4497 75.9214 40.4951 75.9214 38.4088C75.9214 35.9682 78.0032 34.5983 80.7953 34.5983C83.7697 34.5983 86.2661 36.0896 88.2927 39.1304L93.7634 34.8946C91.3223 30.3678 86.802 27.446 80.7953 27.446C73.3642 27.446 67.772 31.8591 67.772 38.5911C67.772 43.8346 71.282 47.2297 77.288 49.911L81.5102 51.8172C85.2577 53.5465 86.5059 54.3794 86.5059 56.7063C86.5059 59.3849 84.4238 61.0558 80.9164 61.0558C76.631 61.0558 73.8389 58.8505 71.2817 55.3311L65.7531 59.5035V59.5039ZM128.247 49.7999C128.247 38.3823 115.224 33.9536 109.218 39.969V22.8002H101.192V67.4868H109.218V50.9319C109.218 47.5367 111.54 45.2151 114.807 45.2151C118.082 45.2151 120.277 47.5473 120.277 50.9319V67.4868H128.247V49.8003V49.7999ZM160.652 49.9746C160.652 41.8093 155.714 37.3408 148.048 37.3408C142.873 37.3408 138.592 39.3634 135.204 43.4172L139.366 48.3617C141.981 45.5615 144.123 44.3105 147.156 44.3105C150.724 44.3105 152.627 46.2171 152.627 49.4933V50.8049H145.253C138.413 50.8049 134.132 54.0811 134.132 59.3852C134.132 64.565 138.059 68.2008 144.3 68.2008C148.048 68.2008 151.14 66.8289 153.279 64.6286V67.4868H160.652V49.9746ZM152.627 56.466C152.627 59.8612 149.948 62.3018 146.441 62.3018C143.883 62.3018 142.224 61.0561 142.224 59.0836C142.224 57.1167 143.707 56.1064 146.322 56.1064H152.627V56.466ZM186.456 37.7031C182.769 36.55 178.246 37.7373 175.758 40.7281V37.2931H168.384V67.4868H176.412V52.7718C176.412 45.9582 182.136 43.4169 186.456 44.0805V37.7028V37.7031ZM199.48 22.8002H191.455V67.4868H199.48C199.48 42.8909 199.48 64.0811 199.48 22.8002V22.8002Z" fill="#FEFEFE"/>
<path d="M65.7531 59.5039C68.7827 64.8053 74.2531 68.2005 80.9164 68.2005C88.7651 68.2005 94.6526 63.6104 94.6526 56.405C94.6526 51.1059 91.5621 47.8244 84.9623 44.9025L80.4999 42.9409C77.1693 41.4497 75.9214 40.4951 75.9214 38.4088C75.9214 35.9682 78.0032 34.5983 80.7953 34.5983C83.7697 34.5983 86.2661 36.0896 88.2927 39.1304L93.7634 34.8946C91.3223 30.3678 86.802 27.446 80.7953 27.446C73.3642 27.446 67.772 31.8591 67.772 38.5911C67.772 43.8346 71.282 47.2297 77.288 49.911L81.5102 51.8172C85.2577 53.5465 86.5059 54.3794 86.5059 56.7063C86.5059 59.3849 84.4238 61.0558 80.9164 61.0558C76.631 61.0558 73.8389 58.8505 71.2817 55.3311L65.7531 59.5035V59.5039ZM128.247 49.7999C128.247 38.3823 115.224 33.9536 109.218 39.969V22.8002H101.192V67.4868H109.218V50.9319C109.218 47.5367 111.54 45.2151 114.807 45.2151C118.082 45.2151 120.277 47.5473 120.277 50.9319V67.4868H128.247V49.8003V49.7999ZM160.652 49.9746C160.652 41.8093 155.714 37.3408 148.048 37.3408C142.873 37.3408 138.592 39.3634 135.204 43.4172L139.366 48.3617C141.981 45.5615 144.123 44.3105 147.156 44.3105C150.724 44.3105 152.627 46.2171 152.627 49.4933V50.8049H145.253C138.413 50.8049 134.132 54.0811 134.132 59.3852C134.132 64.565 138.059 68.2008 144.3 68.2008C148.048 68.2008 151.14 66.8289 153.279 64.6286V67.4868H160.652V49.9746ZM152.627 56.466C152.627 59.8612 149.948 62.3018 146.441 62.3018C143.883 62.3018 142.224 61.0561 142.224 59.0836C142.224 57.1167 143.707 56.1064 146.322 56.1064H152.627V56.466ZM186.456 37.7031C182.769 36.55 178.246 37.7373 175.758 40.7281V37.2931H168.384V67.4868H176.412V52.7718C176.412 45.9582 182.136 43.4169 186.456 44.0805V37.7028V37.7031ZM199.48 22.8002H191.455V67.4868H199.48C199.48 42.8909 199.48 64.0811 199.48 22.8002V22.8002Z" fill="#FEFEFE"/>
<path fill-rule="evenodd" clip-rule="evenodd" d="M211.806 30.7706H221.316L210.818 48.2974L221.316 67.4792H211.801L201.301 48.2974L211.806 30.7706Z" fill="#FEFEFE"/>
<path fill-rule="evenodd" clip-rule="evenodd" d="M252.462 30.7706H242.952L253.451 48.2974L242.952 67.4792H252.467L262.967 48.2974L252.462 30.7706Z" fill="#FEFEFE"/>
<path d="M238.972 67.4815L238.972 60.6166L225.299 60.6166L225.299 67.4815L238.972 67.4815Z" fill="#FEFEFE"/>
<path d="M238.972 67.4815L238.972 60.6166L225.299 60.6166L225.299 67.4815L238.972 67.4815Z" fill="#FEFEFE"/>
<path d="M295.363 54.9996C295.714 53.5392 295.891 52.0788 295.891 50.6787C295.891 43.1422 290.293 37.2434 282.308 37.2434C273.972 37.0697 267.035 44.0179 267.212 52.3691C267.035 60.721 274.089 67.6725 283.009 67.4991C287.261 67.4991 291.111 66.0387 294.55 63.1742L291.284 57.8038C288.779 59.7283 286.097 60.721 283.238 60.721C279.043 60.721 276.071 58.6795 275.137 54.9996H295.364H295.363ZM275.136 49.4519C276.01 45.8893 278.692 43.6099 282.014 43.6099C285.457 43.6099 288.195 45.8893 288.252 49.4519H275.136V49.4519Z" fill="#FEFEFE"/>
<path d="M319.498 37.2935L312.068 53.9764L304.634 37.2935H296.194L310.758 67.4988H313.436L328 37.2935H319.498Z" fill="#FEFEFE"/>
</g>
<defs>
<clipPath id="clip0_25_114">
<rect width="328" height="91" fill="white"/>
</clipPath>
</defs>
</svg>
